<mxfile compressed="false" host="Electron" modified="2022-01-24T10:32:20.524Z" agent="5.0 (Windows NT 10.0; Win64; x64) AppleWebKit/537.36 (KHTML, like Gecko) draw.io/15.7.3 Chrome/91.0.4472.164 Electron/13.6.1 Safari/537.36" etag="VnVqiMd2j2oOprzPLQ5V" version="15.7.3" type="device">
  <diagram name="Zeichenblatt-1" id="Zeichenblatt-1">
    <mxGraphModel dx="1102" dy="2044" grid="1" gridSize="10" guides="1" tooltips="1" connect="1" arrows="1" fold="1" page="1" pageScale="1" pageWidth="827" pageHeight="1169" math="0" shadow="0">
      <root>
        <mxCell id="0" />
        <mxCell id="1" value="Verbinder" style="" parent="0" />
        <mxCell id="vUpLBa6X5mZJnKH7JWD7-17" value="Skalierbar Feldelemente umstellen&#xa;Ohne Sicherheitsreaktion" style="whiteSpace=wrap;" parent="1" vertex="1">
          <mxGeometry x="454" y="-798" width="224" height="50" as="geometry" />
        </mxCell>
        <mxCell id="vUpLBa6X5mZJnKH7JWD7-18" value="Manipulation Kommunikationsnetzwerk" style="whiteSpace=wrap;" parent="1" vertex="1">
          <mxGeometry x="242" y="-639" width="162" height="50" as="geometry" />
        </mxCell>
        <mxCell id="vUpLBa6X5mZJnKH7JWD7-19" value="Impersonation Rechenzentrum" style="whiteSpace=wrap;" parent="1" vertex="1">
          <mxGeometry x="678" y="-639" width="126" height="50" as="geometry" />
        </mxCell>
        <mxCell id="vUpLBa6X5mZJnKH7JWD7-20" value="Manipulation Feldelement&#xa;(Signal, Weiche)" style="fillColor=#fee599;whiteSpace=wrap;" parent="1" vertex="1">
          <mxGeometry x="486" y="-639" width="170" height="50" as="geometry" />
        </mxCell>
        <mxCell id="vUpLBa6X5mZJnKH7JWD7-21" value="Kryptographisches Material kompromittieren" style="fillColor=#d7e3bf;whiteSpace=wrap;" parent="1" vertex="1">
          <mxGeometry x="642" y="-548" width="162" height="50" as="geometry" />
        </mxCell>
        <mxCell id="vUpLBa6X5mZJnKH7JWD7-23" value="Replay-Angriff" style="fillColor=#fee599;whiteSpace=wrap;" parent="1" vertex="1">
          <mxGeometry x="267" y="-540" width="112" height="35" as="geometry" />
        </mxCell>
        <mxCell id="vUpLBa6X5mZJnKH7JWD7-24" value="Infrastrukturüberwachung täuschen" style="whiteSpace=wrap;" parent="1" vertex="1">
          <mxGeometry x="991" y="-790" width="170" height="50" as="geometry" />
        </mxCell>
        <mxCell id="vUpLBa6X5mZJnKH7JWD7-25" value="Manipulation Feldelement&#xa;(Gleisfreimeldung, Zugintegrität, Bahnübergang)" style="fillColor=#fee599;whiteSpace=wrap;" parent="1" vertex="1">
          <mxGeometry x="1220" y="-643" width="224" height="60" as="geometry" />
        </mxCell>
        <mxCell id="vUpLBa6X5mZJnKH7JWD7-26" value="Kommunikation unterbrechen" style="whiteSpace=wrap;" parent="1" vertex="1">
          <mxGeometry x="1514" y="-788" width="190" height="40" as="geometry" />
        </mxCell>
        <mxCell id="vUpLBa6X5mZJnKH7JWD7-27" value="Rechenzentrum zerstören" style="fillColor=#fee599;whiteSpace=wrap;" parent="1" vertex="1">
          <mxGeometry x="1812" y="-788" width="224" height="40" as="geometry" />
        </mxCell>
        <mxCell id="vUpLBa6X5mZJnKH7JWD7-28" value="FRMCS Jamming" style="fillColor=#fee599;whiteSpace=wrap;" parent="1" vertex="1">
          <mxGeometry x="1474" y="-649" width="84" height="40" as="geometry" />
        </mxCell>
        <object label="Kabel zerstören" Ressourcen="1" Knowledge="1" Ort="2" id="vUpLBa6X5mZJnKH7JWD7-29">
          <mxCell style="fillColor=#d7e3bf;whiteSpace=wrap;" parent="1" vertex="1">
            <mxGeometry x="1718" y="-649" width="124" height="40" as="geometry" />
          </mxCell>
        </object>
        <mxCell id="vUpLBa6X5mZJnKH7JWD7-35" value="Fehler in Sicherer Hardware ausnutzen" style="fillColor=#d7e3bf;whiteSpace=wrap;" parent="1" vertex="1">
          <mxGeometry x="816" y="-639" width="126" height="50" as="geometry" />
        </mxCell>
        <mxCell id="vUpLBa6X5mZJnKH7JWD7-36" value="Kompromittierte Sichere Hardware einschleusen" style="fillColor=#d7e3bf;whiteSpace=wrap;" parent="1" vertex="1">
          <mxGeometry x="991" y="-638" width="126" height="50" as="geometry" />
        </mxCell>
        <mxCell id="vUpLBa6X5mZJnKH7JWD7-37" value="Rechenzentrum auslasten" style="fillColor=#fee599;whiteSpace=wrap;" parent="1" vertex="1">
          <mxGeometry x="2066" y="-788" width="224" height="40" as="geometry" />
        </mxCell>
        <object label="Zugkollision herbeiführen" id="vUpLBa6X5mZJnKH7JWD7-39">
          <ag_attributes />
          <ag_computed_attributes />
          <mxCell style="whiteSpace=wrap;" parent="1" vertex="1">
            <mxGeometry x="815" y="-874" width="170" height="40" as="geometry" />
          </mxCell>
        </object>
        <object label="Verspätung provozieren" id="vUpLBa6X5mZJnKH7JWD7-40">
          <ag_attributes />
          <ag_computed_attributes />
          <mxCell style="whiteSpace=wrap;" parent="1" vertex="1">
            <mxGeometry x="1718" y="-876.5" width="170" height="40" as="geometry" />
          </mxCell>
        </object>
        <object label="Verletzung der körperlichen Unversehrtheit" id="vUpLBa6X5mZJnKH7JWD7-41">
          <ag_attributes />
          <ag_computed_attributes />
          <mxCell style="rounded=1;whiteSpace=wrap;" parent="1" vertex="1">
            <mxGeometry x="815" y="-1000" width="190" height="40" as="geometry" />
          </mxCell>
        </object>
        <object label="Einschränkung einer kritischen Dienstleistung" id="vUpLBa6X5mZJnKH7JWD7-42">
          <ag_attributes />
          <ag_computed_attributes />
          <mxCell style="rounded=1;whiteSpace=wrap;" parent="1" vertex="1">
            <mxGeometry x="1630" y="-1000" width="190" height="40" as="geometry" />
          </mxCell>
        </object>
        <object label="Erpressung" id="vUpLBa6X5mZJnKH7JWD7-43">
          <ag_attributes />
          <ag_computed_attributes />
          <mxCell style="fillColor=#d7e3bf;whiteSpace=wrap;" parent="1" vertex="1">
            <mxGeometry x="1243" y="-874" width="144" height="35" as="geometry" />
          </mxCell>
        </object>
        <mxCell id="vUpLBa6X5mZJnKH7JWD7-44" value="STOP" style="verticalAlign=middle;align=center;fillColor=#ff0000;gradientColor=none;shape=stencil(jZLBDoIwDIafpldSugPhjPgeJAy3ODcypuLbu9kYEBPY7W/7dfnbDkQzqW6UQDgF767yqfugQJyASFslvQ5RgWhBNIPz8uLd3fYcj10ik7q5R3ph5r4Ki6pMXYQvzuAnOjNstF3BVBdU58L4Ay6tGfBiKtNGiTtG/kfcxb/FTDNb/GDQg31HsVxq0Mbwodf17WVjin+FaN8=);strokeColor=#000000;labelBackgroundColor=none;rounded=0;whiteSpace=wrap;fontColor=#FFFFFF;" parent="1" vertex="1">
          <mxGeometry x="1748" y="-775" width="33" height="33" as="geometry" />
        </mxCell>
        <mxCell id="vUpLBa6X5mZJnKH7JWD7-45" value="STOP" style="verticalAlign=middle;align=center;fillColor=#ff0000;gradientColor=none;shape=stencil(jZLBDoIwDIafpldSugPhjPgeJAy3ODcypuLbu9kYEBPY7W/7dfnbDkQzqW6UQDgF767yqfugQJyASFslvQ5RgWhBNIPz8uLd3fYcj10ik7q5R3ph5r4Ki6pMXYQvzuAnOjNstF3BVBdU58L4Ay6tGfBiKtNGiTtG/kfcxb/FTDNb/GDQg31HsVxq0Mbwodf17WVjin+FaN8=);strokeColor=#000000;labelBackgroundColor=none;rounded=0;whiteSpace=wrap;fontColor=#FFFFFF;" parent="1" vertex="1">
          <mxGeometry x="1604" y="-642" width="33" height="33" as="geometry" />
        </mxCell>
        <mxCell id="vUpLBa6X5mZJnKH7JWD7-46" value="STOP" style="verticalAlign=middle;align=center;fillColor=#ff0000;gradientColor=none;shape=stencil(jZLBDoIwDIafpldSugPhjPgeJAy3ODcypuLbu9kYEBPY7W/7dfnbDkQzqW6UQDgF767yqfugQJyASFslvQ5RgWhBNIPz8uLd3fYcj10ik7q5R3ph5r4Ki6pMXYQvzuAnOjNstF3BVBdU58L4Ay6tGfBiKtNGiTtG/kfcxb/FTDNb/GDQg31HsVxq0Mbwodf17WVjin+FaN8=);strokeColor=#000000;labelBackgroundColor=none;rounded=0;whiteSpace=wrap;fontColor=#FFFFFF;" parent="1" vertex="1">
          <mxGeometry x="433" y="-622" width="33" height="33" as="geometry" />
        </mxCell>
        <mxCell id="vUpLBa6X5mZJnKH7JWD7-47" value="STOP" style="verticalAlign=middle;align=center;fillColor=#ff0000;gradientColor=none;shape=stencil(jZLBDoIwDIafpldSugPhjPgeJAy3ODcypuLbu9kYEBPY7W/7dfnbDkQzqW6UQDgF767yqfugQJyASFslvQ5RgWhBNIPz8uLd3fYcj10ik7q5R3ph5r4Ki6pMXYQvzuAnOjNstF3BVBdU58L4Ay6tGfBiKtNGiTtG/kfcxb/FTDNb/GDQg31HsVxq0Mbwodf17WVjin+FaN8=);strokeColor=#000000;labelBackgroundColor=none;rounded=0;whiteSpace=wrap;fontColor=#FFFFFF;" parent="1" vertex="1">
          <mxGeometry x="1147" y="-630.5" width="33" height="33" as="geometry" />
        </mxCell>
        <mxCell id="vUpLBa6X5mZJnKH7JWD7-48" value="RE" style="edgeStyle=none;startArrow=none;endArrow=classic;startSize=9;endSize=9;spacingTop=0;spacingBottom=0;spacingLeft=0;spacingRight=0;verticalAlign=middle;labelBackgroundColor=#ffffff;rounded=0;align=center;exitX=0.42857142857142855;exitY=1;exitDx=0;exitDy=0;exitPerimeter=0;entryX=0.696969696969697;entryY=0;entryDx=0;entryDy=0;entryPerimeter=0;endFill=1;" parent="1" source="vUpLBa6X5mZJnKH7JWD7-17" target="vUpLBa6X5mZJnKH7JWD7-46" edge="1">
          <mxGeometry relative="1" as="geometry">
            <mxPoint x="-1" as="offset" />
            <Array as="points" />
          </mxGeometry>
        </mxCell>
        <mxCell id="vUpLBa6X5mZJnKH7JWD7-49" value="RIE" style="edgeStyle=none;startArrow=none;endArrow=classic;startSize=9;endSize=9;spacingTop=0;spacingBottom=0;spacingLeft=0;spacingRight=0;verticalAlign=middle;labelBackgroundColor=#ffffff;rounded=0;align=center;exitX=0.5882352941176471;exitY=1;exitDx=0;exitDy=0;exitPerimeter=0;entryX=0.182;entryY=0.021;entryDx=0;entryDy=0;entryPerimeter=0;endFill=1;" parent="1" source="vUpLBa6X5mZJnKH7JWD7-24" target="vUpLBa6X5mZJnKH7JWD7-47" edge="1">
          <mxGeometry relative="1" as="geometry">
            <mxPoint x="-1" y="-1" as="offset" />
            <Array as="points" />
          </mxGeometry>
        </mxCell>
        <mxCell id="vUpLBa6X5mZJnKH7JWD7-50" value="SRIE" style="edgeStyle=none;startArrow=none;endArrow=classic;startSize=9;endSize=9;spacingTop=0;spacingBottom=0;spacingLeft=0;spacingRight=0;verticalAlign=middle;labelBackgroundColor=#ffffff;rounded=0;align=center;exitX=0.5263157894736842;exitY=1;exitDx=0;exitDy=0;exitPerimeter=0;entryX=0.30303030303030304;entryY=0;entryDx=0;entryDy=0;entryPerimeter=0;endFill=1;" parent="1" source="vUpLBa6X5mZJnKH7JWD7-26" target="vUpLBa6X5mZJnKH7JWD7-45" edge="1">
          <mxGeometry relative="1" as="geometry">
            <mxPoint x="10" y="-1" as="offset" />
            <Array as="points" />
          </mxGeometry>
        </mxCell>
        <mxCell id="vUpLBa6X5mZJnKH7JWD7-51" value="RIE" style="edgeStyle=none;startArrow=none;endArrow=classic;startSize=9;endSize=9;spacingTop=0;spacingBottom=0;spacingLeft=0;spacingRight=0;verticalAlign=middle;labelBackgroundColor=#ffffff;rounded=0;align=center;exitX=0.35294117647058826;exitY=1;exitDx=0;exitDy=0;exitPerimeter=0;entryX=0.7272727272727273;entryY=0;entryDx=0;entryDy=0;entryPerimeter=0;endFill=1;" parent="1" source="vUpLBa6X5mZJnKH7JWD7-40" target="vUpLBa6X5mZJnKH7JWD7-44" edge="1">
          <mxGeometry relative="1" as="geometry">
            <mxPoint x="10" as="offset" />
            <Array as="points" />
          </mxGeometry>
        </mxCell>
        <mxCell id="vUpLBa6X5mZJnKH7JWD7-52" style="edgeStyle=none;startArrow=none;endArrow=classic;startSize=9;endSize=9;spacingTop=0;spacingBottom=0;spacingLeft=0;spacingRight=0;verticalAlign=middle;labelBackgroundColor=#ffffff;rounded=0;exitX=0.33482142857142855;exitY=1;exitDx=0;exitDy=0;exitPerimeter=0;entryX=0.7283950617283951;entryY=0;entryDx=0;entryDy=0;entryPerimeter=0;endFill=1;" parent="1" source="vUpLBa6X5mZJnKH7JWD7-17" target="vUpLBa6X5mZJnKH7JWD7-18" edge="1">
          <mxGeometry relative="1" as="geometry">
            <mxPoint y="-1" as="offset" />
            <Array as="points" />
          </mxGeometry>
        </mxCell>
        <mxCell id="vUpLBa6X5mZJnKH7JWD7-53" style="edgeStyle=none;startArrow=none;endArrow=classic;startSize=9;endSize=9;spacingTop=0;spacingBottom=0;spacingLeft=0;spacingRight=0;verticalAlign=middle;labelBackgroundColor=#ffffff;rounded=0;exitX=0.7455357142857143;exitY=1;exitDx=0;exitDy=0;exitPerimeter=0;entryX=0.06349206349206349;entryY=0;entryDx=0;entryDy=0;entryPerimeter=0;endFill=1;" parent="1" source="vUpLBa6X5mZJnKH7JWD7-17" target="vUpLBa6X5mZJnKH7JWD7-35" edge="1">
          <mxGeometry relative="1" as="geometry">
            <mxPoint as="offset" />
            <Array as="points" />
          </mxGeometry>
        </mxCell>
        <mxCell id="vUpLBa6X5mZJnKH7JWD7-54" value="STD" style="edgeStyle=none;startArrow=none;endArrow=classic;startSize=9;endSize=9;spacingTop=0;spacingBottom=0;spacingLeft=0;spacingRight=0;verticalAlign=middle;labelBackgroundColor=#ffffff;rounded=0;align=center;exitX=0.5178571428571429;exitY=1;exitDx=0;exitDy=0;exitPerimeter=0;entryX=0.4764705882352941;entryY=0;entryDx=0;entryDy=0;entryPerimeter=0;endFill=1;" parent="1" source="vUpLBa6X5mZJnKH7JWD7-17" target="vUpLBa6X5mZJnKH7JWD7-20" edge="1">
          <mxGeometry relative="1" as="geometry">
            <mxPoint y="-1" as="offset" />
            <Array as="points" />
          </mxGeometry>
        </mxCell>
        <mxCell id="vUpLBa6X5mZJnKH7JWD7-55" value="SI" style="edgeStyle=none;startArrow=none;endArrow=classic;startSize=9;endSize=9;spacingTop=0;spacingBottom=0;spacingLeft=0;spacingRight=0;verticalAlign=middle;labelBackgroundColor=#FFFFFF;rounded=0;align=center;exitX=0.4603174603174603;exitY=1;exitDx=0;exitDy=0;exitPerimeter=0;entryX=0.5308641975308642;entryY=0;entryDx=0;entryDy=0;entryPerimeter=0;endFill=1;" parent="1" source="vUpLBa6X5mZJnKH7JWD7-19" target="vUpLBa6X5mZJnKH7JWD7-21" edge="1">
          <mxGeometry relative="1" as="geometry">
            <mxPoint x="-6" y="-1" as="offset" />
            <Array as="points" />
          </mxGeometry>
        </mxCell>
        <mxCell id="vUpLBa6X5mZJnKH7JWD7-56" value="T" style="edgeStyle=none;startArrow=none;endArrow=classic;startSize=9;endSize=9;spacingTop=0;spacingBottom=0;spacingLeft=0;spacingRight=0;verticalAlign=middle;labelBackgroundColor=#ffffff;rounded=0;align=center;exitX=0.5;exitY=1;exitDx=0;exitDy=0;exitPerimeter=0;entryX=0.5;entryY=0;entryDx=0;entryDy=0;entryPerimeter=0;endFill=1;" parent="1" source="vUpLBa6X5mZJnKH7JWD7-38" target="vUpLBa6X5mZJnKH7JWD7-43" edge="1">
          <mxGeometry relative="1" as="geometry">
            <mxPoint x="10" as="offset" />
            <Array as="points" />
          </mxGeometry>
        </mxCell>
        <mxCell id="vUpLBa6X5mZJnKH7JWD7-57" style="edgeStyle=none;startArrow=none;endArrow=classic;startSize=9;endSize=9;spacingTop=0;spacingBottom=0;spacingLeft=0;spacingRight=0;verticalAlign=middle;labelBackgroundColor=#ffffff;rounded=0;exitX=0;exitY=0.65;exitDx=0;exitDy=0;exitPerimeter=0;entryX=1;entryY=0.34;entryDx=0;entryDy=0;entryPerimeter=0;jumpStyle=arc;endFill=1;" parent="1" source="vUpLBa6X5mZJnKH7JWD7-40" target="vUpLBa6X5mZJnKH7JWD7-17" edge="1">
          <mxGeometry relative="1" as="geometry">
            <mxPoint y="-1" as="offset" />
            <Array as="points">
              <mxPoint x="1018.32" y="-796.56" />
            </Array>
          </mxGeometry>
        </mxCell>
        <mxCell id="vUpLBa6X5mZJnKH7JWD7-58" style="edgeStyle=none;startArrow=none;endArrow=classic;startSize=9;endSize=9;spacingTop=0;spacingBottom=0;spacingLeft=0;spacingRight=0;verticalAlign=middle;labelBackgroundColor=#ffffff;rounded=0;exitX=0;exitY=0.75;exitDx=0;exitDy=0;exitPerimeter=0;entryX=1.0058823529411764;entryY=0.3;entryDx=0;entryDy=0;entryPerimeter=0;endFill=1;" parent="1" source="vUpLBa6X5mZJnKH7JWD7-40" target="vUpLBa6X5mZJnKH7JWD7-24" edge="1">
          <mxGeometry relative="1" as="geometry">
            <mxPoint x="-1" as="offset" />
            <Array as="points" />
          </mxGeometry>
        </mxCell>
        <mxCell id="vUpLBa6X5mZJnKH7JWD7-59" style="edgeStyle=none;startArrow=none;endArrow=classic;startSize=9;endSize=9;spacingTop=0;spacingBottom=0;spacingLeft=0;spacingRight=0;verticalAlign=middle;labelBackgroundColor=#ffffff;rounded=0;entryX=1;entryY=0.2;entryDx=0;entryDy=0;entryPerimeter=0;jumpStyle=arc;endFill=1;" parent="1" source="vUpLBa6X5mZJnKH7JWD7-42" target="vUpLBa6X5mZJnKH7JWD7-39" edge="1">
          <mxGeometry relative="1" as="geometry">
            <mxPoint x="-1" as="offset" />
            <Array as="points">
              <mxPoint x="1470.74" y="-931.97" />
              <mxPoint x="1318.28" y="-911.23" />
            </Array>
          </mxGeometry>
        </mxCell>
        <mxCell id="1hsjjzjon8IFMJkLqkHS-3" value="Impact: 5" style="edgeLabel;html=1;align=center;verticalAlign=middle;resizable=0;points=[];" parent="vUpLBa6X5mZJnKH7JWD7-59" vertex="1" connectable="0">
          <mxGeometry x="-0.3164" y="2" relative="1" as="geometry">
            <mxPoint as="offset" />
          </mxGeometry>
        </mxCell>
        <mxCell id="vUpLBa6X5mZJnKH7JWD7-60" value="Impact: 3" style="edgeStyle=none;startArrow=none;endArrow=classic;startSize=9;endSize=9;spacingTop=0;spacingBottom=0;spacingLeft=0;spacingRight=0;verticalAlign=middle;labelBackgroundColor=#ffffff;rounded=0;exitX=0.5368421052631579;exitY=1;exitDx=0;exitDy=0;exitPerimeter=0;entryX=0.4588235294117647;entryY=0;entryDx=0;entryDy=0;entryPerimeter=0;endFill=1;" parent="1" source="vUpLBa6X5mZJnKH7JWD7-42" target="vUpLBa6X5mZJnKH7JWD7-40" edge="1">
          <mxGeometry relative="1" as="geometry">
            <mxPoint as="offset" />
            <Array as="points" />
          </mxGeometry>
        </mxCell>
        <mxCell id="vUpLBa6X5mZJnKH7JWD7-61" value="Impact: 5" style="edgeStyle=none;startArrow=none;endArrow=classic;startSize=9;endSize=9;spacingTop=0;spacingBottom=0;spacingLeft=0;spacingRight=0;verticalAlign=middle;labelBackgroundColor=#ffffff;rounded=0;exitX=0.5;exitY=1;exitDx=0;exitDy=0;exitPerimeter=0;entryX=0.5;entryY=0;entryDx=0;entryDy=0;entryPerimeter=0;endFill=1;" parent="1" source="vUpLBa6X5mZJnKH7JWD7-41" target="vUpLBa6X5mZJnKH7JWD7-39" edge="1">
          <mxGeometry relative="1" as="geometry">
            <mxPoint x="10" as="offset" />
            <Array as="points" />
          </mxGeometry>
        </mxCell>
        <mxCell id="vUpLBa6X5mZJnKH7JWD7-62" style="edgeStyle=none;startArrow=none;endArrow=classic;startSize=9;endSize=9;spacingTop=0;spacingBottom=0;spacingLeft=0;spacingRight=0;verticalAlign=middle;labelBackgroundColor=#ffffff;rounded=0;exitX=0.9105263157894737;exitY=0.975;exitDx=0;exitDy=0;exitPerimeter=0;entryX=0.041176470588235294;entryY=0;entryDx=0;entryDy=0;entryPerimeter=0;endFill=1;" parent="1" source="vUpLBa6X5mZJnKH7JWD7-38" target="vUpLBa6X5mZJnKH7JWD7-40" edge="1">
          <mxGeometry relative="1" as="geometry">
            <mxPoint as="offset" />
            <Array as="points" />
          </mxGeometry>
        </mxCell>
        <mxCell id="vUpLBa6X5mZJnKH7JWD7-63" style="edgeStyle=none;startArrow=none;endArrow=classic;startSize=9;endSize=9;spacingTop=0;spacingBottom=0;spacingLeft=0;spacingRight=0;verticalAlign=middle;labelBackgroundColor=#ffffff;rounded=0;exitX=0.12105263157894737;exitY=1;exitDx=0;exitDy=0;exitPerimeter=0;entryX=0.9235294117647059;entryY=0;entryDx=0;entryDy=0;entryPerimeter=0;endFill=1;" parent="1" source="vUpLBa6X5mZJnKH7JWD7-38" target="vUpLBa6X5mZJnKH7JWD7-39" edge="1">
          <mxGeometry relative="1" as="geometry">
            <mxPoint x="-1" as="offset" />
            <Array as="points" />
          </mxGeometry>
        </mxCell>
        <mxCell id="vUpLBa6X5mZJnKH7JWD7-64" value="STD" style="edgeStyle=none;startArrow=none;endArrow=classic;startSize=9;endSize=9;spacingTop=0;spacingBottom=0;spacingLeft=0;spacingRight=0;verticalAlign=middle;labelBackgroundColor=#ffffff;rounded=0;align=center;exitX=1.0058823529411764;exitY=0.95;exitDx=0;exitDy=0;exitPerimeter=0;entryX=0.07589285714285714;entryY=0;entryDx=0;entryDy=0;entryPerimeter=0;endFill=1;" parent="1" source="vUpLBa6X5mZJnKH7JWD7-40" target="vUpLBa6X5mZJnKH7JWD7-37" edge="1">
          <mxGeometry relative="1" as="geometry">
            <mxPoint as="offset" />
            <Array as="points" />
          </mxGeometry>
        </mxCell>
        <mxCell id="vUpLBa6X5mZJnKH7JWD7-65" value="ST" style="edgeStyle=none;startArrow=none;endArrow=classic;startSize=9;endSize=9;spacingTop=0;spacingBottom=0;spacingLeft=0;spacingRight=0;verticalAlign=middle;labelBackgroundColor=#ffffff;rounded=0;align=center;exitX=0.31176470588235294;exitY=1;exitDx=0;exitDy=0;exitPerimeter=0;entryX=0.7619047619047619;entryY=0;entryDx=0;entryDy=0;entryPerimeter=0;endFill=1;" parent="1" source="vUpLBa6X5mZJnKH7JWD7-24" target="vUpLBa6X5mZJnKH7JWD7-35" edge="1">
          <mxGeometry relative="1" as="geometry">
            <mxPoint x="-1" as="offset" />
            <Array as="points" />
          </mxGeometry>
        </mxCell>
        <mxCell id="vUpLBa6X5mZJnKH7JWD7-66" value="ST" style="edgeStyle=none;startArrow=none;endArrow=classic;startSize=9;endSize=9;spacingTop=0;spacingBottom=0;spacingLeft=0;spacingRight=0;verticalAlign=middle;labelBackgroundColor=#ffffff;rounded=0;align=center;exitX=0.4823529411764706;exitY=1;exitDx=0;exitDy=0;exitPerimeter=0;entryX=0.5317460317460317;entryY=0;entryDx=0;entryDy=0;entryPerimeter=0;endFill=1;" parent="1" source="vUpLBa6X5mZJnKH7JWD7-24" target="vUpLBa6X5mZJnKH7JWD7-36" edge="1">
          <mxGeometry relative="1" as="geometry">
            <mxPoint x="-3" y="-1" as="offset" />
            <Array as="points" />
          </mxGeometry>
        </mxCell>
        <mxCell id="vUpLBa6X5mZJnKH7JWD7-67" style="edgeStyle=none;startArrow=none;endArrow=classic;startSize=9;endSize=9;spacingTop=0;spacingBottom=0;spacingLeft=0;spacingRight=0;verticalAlign=middle;labelBackgroundColor=#ffffff;rounded=0;exitX=0.8705357142857143;exitY=1;exitDx=0;exitDy=0;exitPerimeter=0;entryX=0;entryY=0.12;entryDx=0;entryDy=0;entryPerimeter=0;jumpStyle=arc;endFill=1;" parent="1" source="vUpLBa6X5mZJnKH7JWD7-17" target="vUpLBa6X5mZJnKH7JWD7-36" edge="1">
          <mxGeometry relative="1" as="geometry">
            <mxPoint as="offset" />
            <Array as="points">
              <mxPoint x="924.28" y="-651.3399999999999" />
            </Array>
          </mxGeometry>
        </mxCell>
        <mxCell id="vUpLBa6X5mZJnKH7JWD7-68" style="edgeStyle=none;startArrow=none;endArrow=classic;startSize=9;endSize=9;spacingTop=0;spacingBottom=0;spacingLeft=0;spacingRight=0;verticalAlign=middle;labelBackgroundColor=#ffffff;rounded=0;exitX=0.6428571428571429;exitY=1;exitDx=0;exitDy=0;exitPerimeter=0;entryX=0.24603174603174602;entryY=0;entryDx=0;entryDy=0;entryPerimeter=0;endFill=1;" parent="1" source="vUpLBa6X5mZJnKH7JWD7-17" target="vUpLBa6X5mZJnKH7JWD7-19" edge="1">
          <mxGeometry relative="1" as="geometry">
            <mxPoint as="offset" />
            <Array as="points" />
          </mxGeometry>
        </mxCell>
        <mxCell id="vUpLBa6X5mZJnKH7JWD7-69" value="D" style="edgeStyle=none;startArrow=none;endArrow=classic;startSize=9;endSize=9;spacingTop=0;spacingBottom=0;spacingLeft=0;spacingRight=0;verticalAlign=middle;labelBackgroundColor=#ffffff;rounded=0;align=center;exitX=0.6263157894736842;exitY=1;exitDx=0;exitDy=0;exitPerimeter=0;entryX=0.29838709677419356;entryY=0;entryDx=0;entryDy=0;entryPerimeter=0;endFill=1;" parent="1" source="vUpLBa6X5mZJnKH7JWD7-26" target="vUpLBa6X5mZJnKH7JWD7-29" edge="1">
          <mxGeometry relative="1" as="geometry">
            <mxPoint as="offset" />
            <Array as="points" />
          </mxGeometry>
        </mxCell>
        <mxCell id="vUpLBa6X5mZJnKH7JWD7-70" value="TD" style="edgeStyle=none;startArrow=none;endArrow=classic;startSize=9;endSize=9;spacingTop=0;spacingBottom=0;spacingLeft=0;spacingRight=0;verticalAlign=middle;labelBackgroundColor=#ffffff;rounded=0;align=center;exitX=0.4263157894736842;exitY=1;exitDx=0;exitDy=0;exitPerimeter=0;entryX=0.6547619047619048;entryY=0;entryDx=0;entryDy=0;entryPerimeter=0;endFill=1;" parent="1" source="vUpLBa6X5mZJnKH7JWD7-26" target="vUpLBa6X5mZJnKH7JWD7-28" edge="1">
          <mxGeometry relative="1" as="geometry">
            <mxPoint x="-1" as="offset" />
            <Array as="points" />
          </mxGeometry>
        </mxCell>
        <mxCell id="vUpLBa6X5mZJnKH7JWD7-71" value="D" style="edgeStyle=none;startArrow=none;endArrow=classic;startSize=9;endSize=9;spacingTop=0;spacingBottom=0;spacingLeft=0;spacingRight=0;verticalAlign=middle;labelBackgroundColor=#ffffff;rounded=0;align=center;exitX=0.6882352941176471;exitY=1;exitDx=0;exitDy=0;exitPerimeter=0;entryX=0.35714285714285715;entryY=0;entryDx=0;entryDy=0;entryPerimeter=0;endFill=1;" parent="1" source="vUpLBa6X5mZJnKH7JWD7-40" target="vUpLBa6X5mZJnKH7JWD7-27" edge="1">
          <mxGeometry relative="1" as="geometry">
            <mxPoint as="offset" />
            <Array as="points" />
          </mxGeometry>
        </mxCell>
        <mxCell id="vUpLBa6X5mZJnKH7JWD7-72" value="TD" style="edgeStyle=none;startArrow=none;endArrow=classic;startSize=9;endSize=9;spacingTop=0;spacingBottom=0;spacingLeft=0;spacingRight=0;verticalAlign=middle;labelBackgroundColor=#ffffff;rounded=0;align=center;exitX=0.2235294117647059;exitY=1;exitDx=0;exitDy=0;exitPerimeter=0;entryX=0.7473684210526316;entryY=0;entryDx=0;entryDy=0;entryPerimeter=0;endFill=1;" parent="1" source="vUpLBa6X5mZJnKH7JWD7-40" target="vUpLBa6X5mZJnKH7JWD7-26" edge="1">
          <mxGeometry relative="1" as="geometry">
            <mxPoint x="-1" as="offset" />
            <Array as="points" />
          </mxGeometry>
        </mxCell>
        <mxCell id="vUpLBa6X5mZJnKH7JWD7-73" value="STD" style="edgeStyle=none;startArrow=none;endArrow=classic;startSize=9;endSize=9;spacingTop=0;spacingBottom=0;spacingLeft=0;spacingRight=0;verticalAlign=middle;labelBackgroundColor=#ffffff;rounded=0;align=center;exitX=0.7470588235294118;exitY=1;exitDx=0;exitDy=0;exitPerimeter=0;entryX=0.27232142857142855;entryY=0;entryDx=0;entryDy=0;entryPerimeter=0;endFill=1;" parent="1" source="vUpLBa6X5mZJnKH7JWD7-24" target="vUpLBa6X5mZJnKH7JWD7-25" edge="1">
          <mxGeometry relative="1" as="geometry">
            <mxPoint as="offset" />
            <Array as="points" />
          </mxGeometry>
        </mxCell>
        <mxCell id="vUpLBa6X5mZJnKH7JWD7-74" style="edgeStyle=none;startArrow=none;endArrow=classic;startSize=9;endSize=9;spacingTop=0;spacingBottom=0;spacingLeft=0;spacingRight=0;verticalAlign=middle;labelBackgroundColor=#ffffff;rounded=0;exitX=0.7352941176470589;exitY=1;exitDx=0;exitDy=0;exitPerimeter=0;entryX=0.21176470588235294;entryY=0;entryDx=0;entryDy=0;entryPerimeter=0;endFill=1;" parent="1" source="vUpLBa6X5mZJnKH7JWD7-39" target="vUpLBa6X5mZJnKH7JWD7-24" edge="1">
          <mxGeometry relative="1" as="geometry">
            <mxPoint x="-1" y="-1" as="offset" />
            <Array as="points" />
          </mxGeometry>
        </mxCell>
        <mxCell id="vUpLBa6X5mZJnKH7JWD7-75" value="T" style="edgeStyle=none;startArrow=none;endArrow=classic;startSize=9;endSize=9;spacingTop=0;spacingBottom=0;spacingLeft=0;spacingRight=0;verticalAlign=middle;labelBackgroundColor=#ffffff;rounded=0;align=center;exitX=0.5;exitY=1;exitDx=0;exitDy=0;exitPerimeter=0;entryX=0.5;entryY=0;entryDx=0;entryDy=0;entryPerimeter=0;endFill=1;" parent="1" source="vUpLBa6X5mZJnKH7JWD7-18" target="vUpLBa6X5mZJnKH7JWD7-23" edge="1">
          <mxGeometry relative="1" as="geometry">
            <mxPoint x="-10" as="offset" />
            <Array as="points" />
          </mxGeometry>
        </mxCell>
        <mxCell id="vUpLBa6X5mZJnKH7JWD7-76" style="edgeStyle=none;startArrow=none;endArrow=classic;startSize=9;endSize=9;spacingTop=0;spacingBottom=0;spacingLeft=0;spacingRight=0;verticalAlign=middle;labelBackgroundColor=#ffffff;rounded=0;exitX=0.029411764705882353;exitY=1;exitDx=0;exitDy=0;exitPerimeter=0;entryX=0.9419642857142857;entryY=0;entryDx=0;entryDy=0;entryPerimeter=0;endFill=1;" parent="1" source="vUpLBa6X5mZJnKH7JWD7-39" target="vUpLBa6X5mZJnKH7JWD7-17" edge="1">
          <mxGeometry relative="1" as="geometry">
            <mxPoint y="-1" as="offset" />
            <Array as="points" />
          </mxGeometry>
        </mxCell>
        <mxCell id="QO6YM6yXwNM-NFO-U2gJ-1" value="Angriffsziel&#xa;Cloud-Stellwerk" style="whiteSpace=wrap;shape=trapezoid;size=0.075;" parent="1" vertex="1">
          <mxGeometry x="1165" y="-1130" width="300" height="60" as="geometry" />
        </mxCell>
        <mxCell id="1hsjjzjon8IFMJkLqkHS-4" value="RL: 7" style="text;align=center;verticalAlign=middle;resizable=0;points=[];autosize=1;strokeColor=none;fontSize=13;fontColor=#FF0000;" parent="1" vertex="1">
          <mxGeometry x="930" y="-890" width="50" height="20" as="geometry" />
        </mxCell>
        <object label="Finanzieller Schaden" id="vUpLBa6X5mZJnKH7JWD7-38">
          <ag_attributes />
          <ag_computed_attributes />
          <mxCell style="rounded=1;whiteSpace=wrap;" parent="1" vertex="1">
            <mxGeometry x="1110" y="-1000" width="190" height="40" as="geometry" />
          </mxCell>
        </object>
        <mxCell id="vsxWry4C87c9WAQc7QS0-2" style="edgeStyle=none;rounded=0;orthogonalLoop=1;jettySize=auto;html=1;" edge="1" parent="1" source="vsxWry4C87c9WAQc7QS0-1" target="vUpLBa6X5mZJnKH7JWD7-39">
          <mxGeometry relative="1" as="geometry" />
        </mxCell>
        <mxCell id="vsxWry4C87c9WAQc7QS0-3" style="edgeStyle=none;rounded=0;orthogonalLoop=1;jettySize=auto;html=1;" edge="1" parent="1" source="vsxWry4C87c9WAQc7QS0-1" target="vUpLBa6X5mZJnKH7JWD7-43">
          <mxGeometry relative="1" as="geometry" />
        </mxCell>
        <mxCell id="vsxWry4C87c9WAQc7QS0-4" style="edgeStyle=none;rounded=0;orthogonalLoop=1;jettySize=auto;html=1;" edge="1" parent="1" source="vsxWry4C87c9WAQc7QS0-1" target="vUpLBa6X5mZJnKH7JWD7-40">
          <mxGeometry relative="1" as="geometry" />
        </mxCell>
        <object label="Reputationsschaden Betreiber" id="vsxWry4C87c9WAQc7QS0-1">
          <ag_attributes />
          <ag_computed_attributes />
          <mxCell style="rounded=1;whiteSpace=wrap;" vertex="1" parent="1">
            <mxGeometry x="1350" y="-1000" width="190" height="40" as="geometry" />
          </mxCell>
        </object>
        <mxCell id="VkIn_jL6pkR2RFrk1ZU--1" value="Bewertung" parent="0" />
        <mxCell id="VkIn_jL6pkR2RFrk1ZU--11" value="&lt;div style=&quot;font-size: 13px&quot; align=&quot;left&quot;&gt;Ressourcen: 3&lt;br style=&quot;font-size: 13px&quot;&gt;&lt;/div&gt;&lt;div style=&quot;font-size: 13px&quot; align=&quot;left&quot;&gt;Knowledge: 3&lt;br&gt;&lt;/div&gt;&lt;div style=&quot;font-size: 13px&quot; align=&quot;left&quot;&gt;Ort: 1&lt;br style=&quot;font-size: 13px&quot;&gt;&lt;/div&gt;" style="text;strokeColor=none;fillColor=none;align=left;verticalAlign=top;whiteSpace=wrap;rounded=0;fontSize=13;fontColor=#FF0000;html=1;" parent="VkIn_jL6pkR2RFrk1ZU--1" vertex="1">
          <mxGeometry x="1470" y="-609" width="110" height="50" as="geometry" />
        </mxCell>
        <mxCell id="VkIn_jL6pkR2RFrk1ZU--12" value="&lt;div style=&quot;font-size: 13px&quot; align=&quot;left&quot;&gt;Ressourcen: 1&lt;br style=&quot;font-size: 13px&quot;&gt;&lt;/div&gt;&lt;div style=&quot;font-size: 13px&quot; align=&quot;left&quot;&gt;Knowledge: 1&lt;br&gt;&lt;/div&gt;&lt;div style=&quot;font-size: 13px&quot; align=&quot;left&quot;&gt;Ort: 1&lt;br style=&quot;font-size: 13px&quot;&gt;&lt;/div&gt;" style="text;strokeColor=none;fillColor=none;align=left;verticalAlign=top;whiteSpace=wrap;rounded=0;fontSize=13;fontColor=#FF0000;html=1;" parent="VkIn_jL6pkR2RFrk1ZU--1" vertex="1">
          <mxGeometry x="1720" y="-609" width="110" height="50" as="geometry" />
        </mxCell>
        <mxCell id="VkIn_jL6pkR2RFrk1ZU--13" value="&lt;div style=&quot;font-size: 13px&quot; align=&quot;left&quot;&gt;Ressourcen: 1&lt;br style=&quot;font-size: 13px&quot;&gt;&lt;/div&gt;&lt;div style=&quot;font-size: 13px&quot; align=&quot;left&quot;&gt;Knowledge: 1&lt;br&gt;&lt;/div&gt;&lt;div style=&quot;font-size: 13px&quot; align=&quot;left&quot;&gt;Ort: 1&lt;br style=&quot;font-size: 13px&quot;&gt;&lt;/div&gt;" style="text;strokeColor=none;fillColor=none;align=left;verticalAlign=top;whiteSpace=wrap;rounded=0;fontSize=13;fontColor=#FF0000;html=1;" parent="VkIn_jL6pkR2RFrk1ZU--1" vertex="1">
          <mxGeometry x="1810" y="-750" width="110" height="50" as="geometry" />
        </mxCell>
        <mxCell id="VkIn_jL6pkR2RFrk1ZU--14" value="&lt;div style=&quot;font-size: 13px&quot; align=&quot;left&quot;&gt;R: 1&lt;span&gt; &amp;nbsp; &amp;nbsp; &amp;nbsp; &amp;nbsp;&lt;/span&gt;&lt;span&gt;       &lt;/span&gt;K: 2&amp;nbsp; &amp;nbsp; &amp;nbsp; &amp;nbsp; &amp;nbsp;O: 1&lt;br style=&quot;font-size: 13px&quot;&gt;&lt;/div&gt;" style="text;strokeColor=none;fillColor=none;align=left;verticalAlign=top;whiteSpace=wrap;rounded=0;fontSize=13;fontColor=#FF0000;html=1;" parent="VkIn_jL6pkR2RFrk1ZU--1" vertex="1">
          <mxGeometry x="1540" y="-746" width="140" height="20" as="geometry" />
        </mxCell>
        <mxCell id="VkIn_jL6pkR2RFrk1ZU--15" value="&lt;div style=&quot;font-size: 13px&quot; align=&quot;left&quot;&gt;&amp;nbsp;R: 1&lt;span&gt; &amp;nbsp; &amp;nbsp;&lt;/span&gt;&lt;span&gt;       &lt;/span&gt;K: 1 &amp;nbsp;&amp;nbsp;&amp;nbsp; O: 1&lt;br style=&quot;font-size: 13px&quot;&gt;&lt;/div&gt;" style="text;strokeColor=none;fillColor=none;align=left;verticalAlign=top;whiteSpace=wrap;rounded=0;fontSize=13;fontColor=#FF0000;html=1;" parent="VkIn_jL6pkR2RFrk1ZU--1" vertex="1">
          <mxGeometry x="1730" y="-828" width="140" height="20" as="geometry" />
        </mxCell>
        <mxCell id="VkIn_jL6pkR2RFrk1ZU--16" value="RL: 9" style="text;align=center;verticalAlign=middle;resizable=0;points=[];autosize=1;strokeColor=none;fontSize=13;fontColor=#FF0000;" parent="VkIn_jL6pkR2RFrk1ZU--1" vertex="1">
          <mxGeometry x="1800" y="-900" width="50" height="20" as="geometry" />
        </mxCell>
        <mxCell id="VkIn_jL6pkR2RFrk1ZU--17" value="RL: 9" style="text;align=center;verticalAlign=middle;resizable=0;points=[];autosize=1;strokeColor=none;fontSize=13;fontColor=#FF0000;" parent="VkIn_jL6pkR2RFrk1ZU--1" vertex="1">
          <mxGeometry x="1900" y="-810" width="50" height="20" as="geometry" />
        </mxCell>
        <mxCell id="VkIn_jL6pkR2RFrk1ZU--18" value="RL: 9" style="text;align=center;verticalAlign=middle;resizable=0;points=[];autosize=1;strokeColor=none;fontSize=13;fontColor=#FF0000;" parent="VkIn_jL6pkR2RFrk1ZU--1" vertex="1">
          <mxGeometry x="1540" y="-810" width="50" height="20" as="geometry" />
        </mxCell>
        <mxCell id="VkIn_jL6pkR2RFrk1ZU--19" value="RL: 7" style="text;align=center;verticalAlign=middle;resizable=0;points=[];autosize=1;strokeColor=none;fontSize=13;fontColor=#FF0000;" parent="VkIn_jL6pkR2RFrk1ZU--1" vertex="1">
          <mxGeometry x="1480" y="-670" width="50" height="20" as="geometry" />
        </mxCell>
        <mxCell id="VkIn_jL6pkR2RFrk1ZU--20" value="RL: 9" style="text;align=center;verticalAlign=middle;resizable=0;points=[];autosize=1;strokeColor=none;fontSize=13;fontColor=#FF0000;" parent="VkIn_jL6pkR2RFrk1ZU--1" vertex="1">
          <mxGeometry x="1760" y="-670" width="50" height="20" as="geometry" />
        </mxCell>
        <mxCell id="VkIn_jL6pkR2RFrk1ZU--21" value="&lt;div style=&quot;font-size: 13px&quot; align=&quot;left&quot;&gt;Ressourcen: 1&lt;br style=&quot;font-size: 13px&quot;&gt;&lt;/div&gt;&lt;div style=&quot;font-size: 13px&quot; align=&quot;left&quot;&gt;Knowledge: 1&lt;br&gt;&lt;/div&gt;&lt;div style=&quot;font-size: 13px&quot; align=&quot;left&quot;&gt;Ort: 1&lt;br style=&quot;font-size: 13px&quot;&gt;&lt;/div&gt;" style="text;strokeColor=none;fillColor=none;align=left;verticalAlign=top;whiteSpace=wrap;rounded=0;fontSize=13;fontColor=#FF0000;html=1;" parent="VkIn_jL6pkR2RFrk1ZU--1" vertex="1">
          <mxGeometry x="2068" y="-750" width="110" height="50" as="geometry" />
        </mxCell>
      </root>
    </mxGraphModel>
  </diagram>
</mxfile>
